<?xml version="1.0" encoding="UTF-8"?>
<svg width="43px" height="64px" viewBox="0 0 43 64" version="1.1" xmlns="http://www.w3.org/2000/svg" xmlns:xlink="http://www.w3.org/1999/xlink">
    <title>001-pin</title>
    <g id="Page-1" stroke="none" stroke-width="1" fill="none" fill-rule="evenodd">
        <g id="1920_home" transform="translate(-858.000000, -758.000000)" fill="#FFFFFF" fill-rule="nonzero">
            <g id="Group-2" transform="translate(858.000000, 755.000000)">
                <g id="001-pin" transform="translate(0.000000, 3.000000)">
                    <path d="M21.5,0 C9.64512472,0 0,9.570375 0,21.333375 C0,24.864625 0.889770723,28.365875 2.58125472,31.471375 L20.324263,63.3125 C20.5604686,63.737 21.010582,64 21.5,64 C21.989418,64 22.4395314,63.737 22.675737,63.3125 L40.425296,31.460875 C42.1102293,28.365875 43,24.8645 43,21.33325 C43,9.570375 33.3548753,0 21.5,0 Z M38.0671454,30.181 L21.5,59.9115 L4.93940539,30.19275 C3.46573444,27.487 2.68757874,24.42325 2.68757874,21.333375 C2.68757874,11.040375 11.1267322,2.66675 21.5,2.66675 C31.8732678,2.66675 40.3124213,11.0405 40.3124213,21.333375 C40.3124213,24.423125 39.5342656,27.487 38.0671454,30.181 Z" id="Shape"></path>
                    <path d="M22,11 C15.9346794,11 11,15.7103482 11,21.4999385 C11,27.2896518 15.9346794,32 22,32 C28.0653206,32 33,27.2896518 33,21.5000615 C33,15.7104713 28.0653206,11 22,11 Z M22,29.3750461 C17.4506229,29.3750461 13.7499678,25.8426234 13.7499678,21.5000615 C13.7499678,17.1574997 17.4506229,13.6250769 22,13.6250769 C26.5493771,13.6250769 30.2500322,17.1574997 30.2500322,21.5000615 C30.2500322,25.8425003 26.5493771,29.3750461 22,29.3750461 Z" id="Shape"></path>
                </g>
            </g>
        </g>
    </g>
</svg>