<?xml version="1.0" encoding="UTF-8"?>
<svg width="64px" height="64px" viewBox="0 0 64 64" version="1.1" xmlns="http://www.w3.org/2000/svg" xmlns:xlink="http://www.w3.org/1999/xlink">
    <title>003-clock</title>
    <g id="Page-1" stroke="none" stroke-width="1" fill="none" fill-rule="evenodd">
        <g id="1920_home" transform="translate(-1222.000000, -758.000000)" fill="#FFFFFF" fill-rule="nonzero">
            <g id="Group-3" transform="translate(1222.000000, 755.000000)">
                <g id="003-clock" transform="translate(0.000000, 3.000000)">
                    <path d="M32,0 C14.3555,0 0,14.3555 0,32 C0,49.6445 14.3555,64 32,64 C49.6445,64 64,49.6445 64,32 C64,14.3555 49.6445,0 32,0 Z M33.333375,61.26575 L33.333375,57.33325 C33.333375,56.59625 32.737,55.999875 32,55.999875 C31.263,55.999875 30.666625,56.59625 30.666625,57.33325 L30.666625,61.26575 C15.558125,60.581625 3.41825,48.441875 2.734125,33.33325 L6.666625,33.33325 C7.403625,33.333375 8,32.737 8,32 C8,31.263 7.403625,30.666625 6.666625,30.666625 L2.734125,30.666625 C3.41825,15.558125 15.558,3.41825 30.666625,2.734125 L30.666625,6.666625 C30.666625,7.403625 31.263,8 32,8 C32.737,8 33.333375,7.403625 33.333375,6.666625 L33.333375,2.734125 C48.441875,3.41825 60.58175,15.558 61.265875,30.666625 L57.333375,30.666625 C56.596375,30.666625 56,31.263 56,32 C56,32.737 56.596375,33.333375 57.333375,33.333375 L61.265875,33.333375 C60.58175,48.441875 48.441875,60.58175 33.333375,61.26575 Z" id="Shape"></path>
                    <path d="M34.2017398,33.1936661 C34.2568647,32.9782247 34.3332396,32.7702297 34.3332396,32.5376236 C34.3332396,31.9740934 34.12099,31.4797266 33.8266156,31.0469506 L42.2082242,12.9132687 C42.5194736,12.2401877 42.2317242,11.4381195 41.5637255,11.1239814 C40.8983518,10.8148918 40.1041033,11.1029043 39.7916039,11.7747231 L31.4159953,29.8964151 C30.0689979,30.0305769 29,31.143123 29,32.5376236 C29,34.0218599 30.1966227,35.2300736 31.6666198,35.2300736 C31.8968693,35.2300736 32.1029939,35.152959 32.3163685,35.0973001 L42.7238482,45.605592 C42.9842227,45.8684886 43.325472,46 43.6665964,46 C44.0077207,46 44.348845,45.8684886 44.6093445,45.605592 C45.1302185,45.0796725 45.1302185,44.2277512 44.6093445,43.701958 L34.2017398,33.1936661 Z" id="Path"></path>
                </g>
            </g>
        </g>
    </g>
</svg>