<?xml version="1.0" encoding="UTF-8"?>
<svg width="48px" height="64px" viewBox="0 0 48 64" version="1.1" xmlns="http://www.w3.org/2000/svg" xmlns:xlink="http://www.w3.org/1999/xlink">
    <title>002-teeth</title>
    <g id="Page-1" stroke="none" stroke-width="1" fill="none" fill-rule="evenodd">
        <g id="1920_home" transform="translate(-462.000000, -758.000000)" fill="#FFFFFF" fill-rule="nonzero">
            <g id="002-teeth" transform="translate(462.000000, 758.000000)">
                <path d="M48,12 C48,6.32425 43.61975,0 37.333375,0 C34.42975,0 32.36725,0.351625 30.372375,0.690125 C28.429625,1.020875 26.596375,1.333375 24,1.333375 C21.403625,1.333375 19.57025,1.020875 17.627625,0.690125 C15.632875,0.351625 13.570375,0 10.666625,0 C4.38025,0 0,6.32425 0,12 C0,15.833625 2.984375,24.3625 5.7215,29.885875 C4.6375,36.374125 6.263,58.343625 9.93225,62.875 C10.684875,63.80475 11.471375,64 12,64 C16.559875,64 16.953125,58.364625 17.36975,52.397125 C17.929625,44.358 18.73175,38.666625 24,38.666625 C29.26825,38.666625 30.070375,44.358 30.63025,52.397125 C31.046875,58.364625 31.440125,64 36,64 C36.528625,64 37.315125,63.804625 38.06775,62.875 C41.737,58.34375 43.3625,36.374875 42.2785,29.88625 C45.015625,24.362625 48,15.833625 48,12 Z M36,61.333375 C33.927125,61.333375 33.604125,56.696625 33.291625,52.21225 C32.789125,44.989625 32.1615,36 24,36 C15.8385,36 15.210875,44.989625 14.708375,52.21225 C14.395875,56.696625 14.073,61.333375 12.1745,61.371125 C10.02025,60.07275 7.699625,43.0475 8.023625,33.811375 C8.12275,33.941875 8.226,34.0905 8.320375,34.2005 C8.80475,34.76425 9.6485,34.82675 10.200625,34.345 C10.7605,33.865875 10.825625,33.024625 10.3465,32.466125 C7.76825,29.459625 2.666625,16.514375 2.666625,12 C2.666625,7.585875 5.953125,2.666625 10.666625,2.666625 C13.346375,2.666625 15.20825,2.984375 17.179625,3.319 C19.145875,3.653625 21.177125,4 24,4 C26.822875,4 28.854125,3.653625 30.820375,3.319 C32.79175,2.984375 34.65375,2.666625 37.333375,2.666625 C42.046875,2.666625 45.333375,7.585875 45.333375,12 C45.333375,16.514375 40.23175,29.459625 37.653625,32.466125 C37.1745,33.02475 37.2395,33.865875 37.7995,34.345 C38.0495,34.561125 38.359375,34.666625 38.66675,34.666625 C39.04175,34.666625 39.414125,34.509125 39.67975,34.2005 C39.774375,34.090125 39.877875,33.941375 39.977125,33.8105 C40.304375,43.045875 38.0045,60.067375 36,61.333375 Z" id="Shape"></path>
            </g>
        </g>
    </g>
</svg>